<svg xmlns="http://www.w3.org/2000/svg" viewBox="0 0 418.2 67.7"><title>アセット 1</title><g id="レイヤー_2" data-name="レイヤー 2"><g id="レイヤー_1-2" data-name="レイヤー 1"><path d="M0,61.7a12.53,12.53,0,0,1,5.2-7.8,22.92,22.92,0,0,0,14.6,4.7c6.7,0,9.1-2.5,9.1-5.7s-2.7-5-11.2-6.3S1.3,42.2,1.3,32.2c0-8.8,7.9-14.8,19.9-14.8,8.6,0,14.7,2.4,17.8,4.6a12.16,12.16,0,0,1-4.3,8.1,28.36,28.36,0,0,0-13.9-3.6c-6,0-8.6,1.9-8.6,4.9s2.1,4.6,10.2,5.9c10.3,1.6,17.8,5.1,17.8,14.5,0,9.9-7.6,15.9-20.6,15.9C9,67.7,2.7,64,0,61.7Z"/><path d="M47.4,42.5c0-14.7,10.7-25.2,25.3-25.2S97.6,27.7,97.6,42.5c0,14.6-10.7,25.1-25.3,25.1S47.4,57.3,47.4,42.5Zm38.8,0c0-9.1-5.2-15.4-13.7-15.4S58.8,33.4,58.8,42.5,64,57.7,72.5,57.7,86.2,51.5,86.2,42.5Z"/><path d="M152.8,65.8a40.7,40.7,0,0,1-8.2.9c-1.4,0-4-.1-5.7-.3L123,48.3c-1.3.8-2.6,1.6-3.9,2.3V66.1a25.94,25.94,0,0,1-5.6.5,28.69,28.69,0,0,1-5.7-.5V.5a26.52,26.52,0,0,1,5.6-.5,27.46,27.46,0,0,1,5.7.5V38.7A54,54,0,0,0,137.6,19a38.25,38.25,0,0,1,5.7-.3,34.36,34.36,0,0,1,6.9.7,82.39,82.39,0,0,1-18.3,22.5Z"/><path d="M202.5,19.1V62.6a50.66,50.66,0,0,1-22.6,5c-14.8,0-21.4-7.3-21.4-18.8V19.1a29,29,0,0,1,5.8-.5,26.52,26.52,0,0,1,5.6.5V45.5c0,7.7,2,12,11.5,12a24.67,24.67,0,0,0,9.7-1.8V19.1a28.07,28.07,0,0,1,5.7-.5A27.46,27.46,0,0,1,202.5,19.1Z"/><path d="M259.9,36.4V66.1a28.42,28.42,0,0,1-5.8.5,27.11,27.11,0,0,1-5.6-.5V39.8c0-6.9-2.7-12-11.4-12a22.37,22.37,0,0,0-10.4,2.8V66.1a25.94,25.94,0,0,1-5.6.5,29,29,0,0,1-5.8-.5V.5A27.46,27.46,0,0,1,221,0a28.07,28.07,0,0,1,5.7.5V20.1a27.8,27.8,0,0,1,12.2-2.8C253.1,17.3,259.9,26.2,259.9,36.4Z"/><path d="M311.7,37V62.9a53.6,53.6,0,0,1-21.9,4.7c-14,0-20.9-5.9-20.9-15.4,0-9.8,8.5-15.1,20-15A34.25,34.25,0,0,1,300.6,39V36.3c0-5.7-3.8-9.1-11.4-9.1A22.92,22.92,0,0,0,276,31.4a9.55,9.55,0,0,1-5.2-7.3c2.8-2.7,10-6.7,19.2-6.7C302.5,17.4,311.7,23,311.7,37ZM290.8,58.9a33,33,0,0,0,9.8-1.5V47.2a28.12,28.12,0,0,0-10.8-1.9c-5.6,0-9.4,1.9-9.4,6.4C280.4,56,283.8,58.9,290.8,58.9Z"/><path d="M368.5,65.8a40.7,40.7,0,0,1-8.2.9c-1.4,0-4-.1-5.7-.3L338.7,48.3c-1.3.8-2.6,1.6-3.9,2.3V66.1a25.94,25.94,0,0,1-5.6.5,28.69,28.69,0,0,1-5.7-.5V.5a26.52,26.52,0,0,1,5.6-.5,27.46,27.46,0,0,1,5.7.5V38.7A54,54,0,0,0,353.3,19a38.25,38.25,0,0,1,5.7-.3,34.36,34.36,0,0,1,6.9.7,82.39,82.39,0,0,1-18.3,22.5Z"/><path d="M418.2,19.1V62.6a50.68,50.68,0,0,1-22.61,5c-14.8,0-21.4-7.3-21.4-18.8V19.1a29,29,0,0,1,5.8-.5,26.52,26.52,0,0,1,5.6.5V45.5c0,7.7,2,12,11.5,12a24.64,24.64,0,0,0,9.7-1.8V19.1a28.22,28.22,0,0,1,5.71-.5A27.46,27.46,0,0,1,418.2,19.1Z"/></g></g></svg>