<svg xmlns="http://www.w3.org/2000/svg" width="206" height="36" viewBox="0 0 206 36">
  <metadata><?xpacket begin="﻿" id="W5M0MpCehiHzreSzNTczkc9d"?>
<x:xmpmeta xmlns:x="adobe:ns:meta/" x:xmptk="Adobe XMP Core 5.6-c140 79.160451, 2017/05/06-01:08:21        ">
   <rdf:RDF xmlns:rdf="http://www.w3.org/1999/02/22-rdf-syntax-ns#">
      <rdf:Description rdf:about=""/>
   </rdf:RDF>
</x:xmpmeta>
                                                                                                    
                                                                                                    
                                                                                                    
                                                                                                    
                                                                                                    
                                                                                                    
                                                                                                    
                                                                                                    
                                                                                                    
                                                                                                    
                                                                                                    
                                                                                                    
                                                                                                    
                                                                                                    
                                                                                                    
                                                                                                    
                                                                                                    
                                                                                                    
                                                                                                    
                                                                                                    
                           
<?xpacket end="w"?></metadata>
<defs>
    <style>
      .cls-1 {
        fill: #fff;
        fill-rule: evenodd;
      }
    </style>
  </defs>
  <path id="logo" class="cls-1" d="M43,73.144a2.189,2.189,0,0,1,2.108-2.287,2.229,2.229,0,0,1,2.19,2.287,4.078,4.078,0,0,0,4.215,4.276,4.144,4.144,0,0,0,4.339-4.475,6.7,6.7,0,0,0-2.934-5.965l-1.116-.8c-2.727-1.84-3.471-2.437-4.256-3.033-2.645-2.137-4.3-4.623-4.3-8.351,0-5.519,3.8-8.8,8.182-8.8,4.587,0,8.183,3.231,8.183,8.5a2.153,2.153,0,1,1-4.3,0,3.567,3.567,0,0,0-3.884-3.927c-2.686,0-3.885,2.138-3.885,4.176,0,1.094,0,2.585,2.232,4.474A49.617,49.617,0,0,0,55.026,63.1a11.735,11.735,0,0,1,5.124,9.843c0,5.768-4.215,9.048-8.637,9.048C46.182,81.993,43,77.668,43,73.144Zm25.951-1.292V56.142C68.951,50.574,72.836,46,77.63,46s8.678,4.574,8.678,10.141v15.71c0,5.617-3.885,10.141-8.678,10.141S68.951,77.469,68.951,71.852Zm4.257-15.71v15.71c0,3.033,1.984,5.568,4.422,5.568,2.4,0,4.38-2.535,4.38-5.568V56.142c0-3.032-1.983-5.568-4.38-5.568C75.191,50.574,73.208,53.11,73.208,56.142Zm38.886,25.851a2.46,2.46,0,0,1-2.025-1.491L103.622,64l-2.562,3.479v12.18a2.24,2.24,0,0,1-2.149,2.337,2.273,2.273,0,0,1-2.19-2.337V48.287A2.228,2.228,0,0,1,98.911,46a2.2,2.2,0,0,1,2.149,2.286V60.516c3.1-4.573,6.2-9.2,9.3-13.72a2.205,2.205,0,0,1,1.695-.8c1.57,0,2.644,2.237,1.652,3.728l-6.984,10.241L114,78.712C114.491,80.054,113.664,81.993,112.094,81.993Zm10.5-10.141V48.287A2.228,2.228,0,0,1,124.78,46a2.188,2.188,0,0,1,2.107,2.286V71.852c0,3.033,1.984,5.518,4.381,5.518,2.438,0,4.421-2.486,4.421-5.518V48.287a2.134,2.134,0,1,1,4.257,0V71.852c0,5.568-3.843,10.141-8.678,10.141C126.474,81.993,122.589,77.42,122.589,71.852Zm45.705-23.565V79.656a2.138,2.138,0,1,1-4.257,0V64.941h-8.72V79.656a2.234,2.234,0,0,1-2.107,2.337,2.273,2.273,0,0,1-2.19-2.337V48.287A2.228,2.228,0,0,1,153.21,46a2.188,2.188,0,0,1,2.107,2.286V60.368h8.72V48.287A2.134,2.134,0,1,1,168.294,48.287ZM197.1,79.06a2.42,2.42,0,0,1-2.148,2.933,2.116,2.116,0,0,1-1.984-1.641l-1.736-6.661H182.88c-0.578,2.287-1.074,4.424-1.653,6.661a2.192,2.192,0,0,1-2.066,1.641,2.331,2.331,0,0,1-2.025-2.983v0.05l7.852-31.419A2.28,2.28,0,0,1,187.1,46a2.223,2.223,0,0,1,2.024,1.64l7.935,31.419H197.1Zm-6.984-9.943L187.1,55.4,184,69.117h6.116Zm31.034,12.876a2.458,2.458,0,0,1-2.024-1.491L212.675,64l-2.562,3.479v12.18a2.24,2.24,0,0,1-2.15,2.337,2.273,2.273,0,0,1-2.19-2.337V48.287A2.228,2.228,0,0,1,207.963,46a2.2,2.2,0,0,1,2.15,2.286V60.516c3.1-4.573,6.2-9.2,9.3-13.72a2.2,2.2,0,0,1,1.694-.8c1.571,0,2.645,2.237,1.653,3.728l-6.984,10.241,7.274,18.743C223.543,80.054,222.717,81.993,221.146,81.993Zm10.5-10.141V48.287A2.228,2.228,0,0,1,233.832,46a2.188,2.188,0,0,1,2.108,2.286V71.852c0,3.033,1.984,5.518,4.38,5.518,2.439,0,4.422-2.486,4.422-5.518V48.287a2.134,2.134,0,1,1,4.257,0V71.852c0,5.568-3.844,10.141-8.679,10.141C235.527,81.993,231.642,77.42,231.642,71.852Z" transform="translate(-43 -46)"/>
</svg>
